<?xml version="1.0" standalone="no"?><!DOCTYPE svg PUBLIC "-//W3C//DTD SVG 1.1//EN" "http://www.w3.org/Graphics/SVG/1.1/DTD/svg11.dtd"><svg t="1482894877304" class="icon" style="" viewBox="0 0 1024 1024" version="1.1" xmlns="http://www.w3.org/2000/svg" p-id="1003" xmlns:xlink="http://www.w3.org/1999/xlink" width="32" height="32"><defs><style type="text/css"></style></defs><path d="M358.681102 586.386174c0 0-90.967828 49.399083-94.488001 126.826524-3.51915 77.428464-77.42744 133.73998-102.063537 140.77828s360.157733 22.971178 332.002486-142.444223L358.681102 586.386174z" p-id="1004" fill="#cccccc"></path><path d="M527.780405 638.94625c14.015202 13.600763 17.565051 32.67519 7.928576 42.605354l0 0c-9.635451 9.930163-28.809139 6.954389-42.823318-6.646374l-92.7668-88.518033c-14.015202-13.600763-17.565051-32.67519-7.928576-42.605354l0 0c9.635451-9.930163 28.809139-6.954389 42.823318 6.646374L527.780405 638.94625z" p-id="1005" fill="#cccccc"></path><path d="M849.514013 173.862793c-25.143657-17.054421-47.741327-1.763157-57.477063 3.805676-29.096688 19.484773-237.243309 221.768873-327.689251 315.193659-11.105942 14.800078-18.590404 26.293853 34.662451 79.545684 44.950771 44.950771 65.895803 42.011836 88.660272 22.602787 37.905308-37.905308 199.298092-262.925225 258.918981-348.713077C856.382445 232.205573 876.441293 192.127785 849.514013 173.862793z" p-id="1006" fill="#cccccc"></path></svg>